# xmcd
#
# Track frame offsets:
#	150
#	12643
#	25171
#	37573
#	51430
#	67798
#	78537
#	89990
#	101437
#	114277
#	126233
#	139279
#	152005
#	164200
#	180973
#	194241
#	204814
#	216361
#	228526
#	239784
#	253405
#	264857
#	277005
#	289615
#	299500
#	310181
#	320085
#
# Disc length: 4423 seconds
#
# Revision: 0
# Processed by: cddbd v1.5.2PL0 Copyright (c) Steve Scherf et al.
# Submitted via: dBpowerAMP V4.0
#
DISCID=a111451b
DTITLE=Hank Snow - Dostavník 2 - Hank Snow
DYEAR=1997
DGENRE=Country
TTITLE0=I'm Movin' On
TTITLE1=The Golden Rocket
TTITLE2=Marriage Wow
TTITLE3=Rhumba Boogie
TTITLE4=Bluebird Island
TTITLE5=Music Makin' Mama From Memphis
TTITLE6=Down The Trail Of Achin' Hearts
TTITLE7=The Gold Rush Is Over
TTITLE8=(Now And Then There's) A Fool Such As I
TTITLE9=When My Blue Moon Turns To Gold Again (with Anita Carter)
TTITLE10=I Don't Hurt Anymore
TTITLE11=Let Me Go Lover
TTITLE12=Call Of The Wild
TTITLE13=My Mother
TTITLE14=These Hands
TTITLE15=Conscience I'm Guilty
TTITLE16=Stolen Moments
TTITLE17=Tangled Mind
TTITLE18=Big Wheels
TTITLE19=The Last Ride
TTITLE20=I Never Will Marry (with Anita Carter)
TTITLE21=Miller's Cave
TTITLE22=I've Been Everywhere
TTITLE23=Jamaica Farewell
TTITLE24=Waiting For A Train
TTITLE25=The Blue Canadian Rockies
TTITLE26=Ninety Miles An Hour (Down A Dead End Street)
EXTD=
EXTT0=
EXTT1=
EXTT2=
EXTT3=
EXTT4=
EXTT5=
EXTT6=
EXTT7=
EXTT8=
EXTT9=
EXTT10=
EXTT11=
EXTT12=
EXTT13=
EXTT14=
EXTT15=
EXTT16=
EXTT17=
EXTT18=
EXTT19=
EXTT20=
EXTT21=
EXTT22=
EXTT23=
EXTT24=
EXTT25=
EXTT26=
PLAYORDER=
